<mxfile host="app.diagrams.net" modified="2020-10-06T12:27:56.669Z" agent="5.0 (Macintosh; Intel Mac OS X 10_15_7) AppleWebKit/537.36 (KHTML, like Gecko) Chrome/85.0.4183.121 Safari/537.36" etag="cLXaWh20dDsU6q55-lBk" version="13.7.7" type="github">
  <diagram id="M2Inggws1NoIj6D3lmjE" name="Page-1">
    <mxGraphModel dx="1554" dy="866" grid="1" gridSize="10" guides="1" tooltips="1" connect="1" arrows="1" fold="1" page="1" pageScale="1" pageWidth="827" pageHeight="1169" math="0" shadow="0">
      <root>
        <mxCell id="0" />
        <mxCell id="1" parent="0" />
        <mxCell id="NFTmUVM-WyqIyTPoP_TL-4" style="edgeStyle=orthogonalEdgeStyle;rounded=0;orthogonalLoop=1;jettySize=auto;html=1;exitX=0.25;exitY=0;exitDx=0;exitDy=0;entryX=0.5;entryY=1;entryDx=0;entryDy=0;" edge="1" parent="1" source="NFTmUVM-WyqIyTPoP_TL-1" target="NFTmUVM-WyqIyTPoP_TL-3">
          <mxGeometry relative="1" as="geometry" />
        </mxCell>
        <mxCell id="NFTmUVM-WyqIyTPoP_TL-15" style="edgeStyle=orthogonalEdgeStyle;rounded=0;orthogonalLoop=1;jettySize=auto;html=1;exitX=0.75;exitY=0;exitDx=0;exitDy=0;entryX=0.5;entryY=1;entryDx=0;entryDy=0;" edge="1" parent="1" source="NFTmUVM-WyqIyTPoP_TL-1" target="NFTmUVM-WyqIyTPoP_TL-14">
          <mxGeometry relative="1" as="geometry" />
        </mxCell>
        <mxCell id="NFTmUVM-WyqIyTPoP_TL-1" value="Bolão" style="rounded=0;whiteSpace=wrap;html=1;" vertex="1" parent="1">
          <mxGeometry x="117.5" y="230" width="120" height="60" as="geometry" />
        </mxCell>
        <mxCell id="NFTmUVM-WyqIyTPoP_TL-3" value="Tipo" style="ellipse;whiteSpace=wrap;html=1;" vertex="1" parent="1">
          <mxGeometry x="80" y="140" width="75" height="50" as="geometry" />
        </mxCell>
        <mxCell id="NFTmUVM-WyqIyTPoP_TL-12" style="edgeStyle=orthogonalEdgeStyle;rounded=0;orthogonalLoop=1;jettySize=auto;html=1;entryX=0.5;entryY=0;entryDx=0;entryDy=0;exitX=0.25;exitY=1;exitDx=0;exitDy=0;" edge="1" parent="1" source="NFTmUVM-WyqIyTPoP_TL-5" target="NFTmUVM-WyqIyTPoP_TL-10">
          <mxGeometry relative="1" as="geometry" />
        </mxCell>
        <mxCell id="NFTmUVM-WyqIyTPoP_TL-13" style="edgeStyle=orthogonalEdgeStyle;rounded=0;orthogonalLoop=1;jettySize=auto;html=1;exitX=0.75;exitY=1;exitDx=0;exitDy=0;" edge="1" parent="1" source="NFTmUVM-WyqIyTPoP_TL-5" target="NFTmUVM-WyqIyTPoP_TL-11">
          <mxGeometry relative="1" as="geometry" />
        </mxCell>
        <mxCell id="NFTmUVM-WyqIyTPoP_TL-5" value="Apostadores" style="rounded=0;whiteSpace=wrap;html=1;" vertex="1" parent="1">
          <mxGeometry x="340" y="230" width="120" height="60" as="geometry" />
        </mxCell>
        <mxCell id="NFTmUVM-WyqIyTPoP_TL-8" style="edgeStyle=orthogonalEdgeStyle;rounded=0;orthogonalLoop=1;jettySize=auto;html=1;entryX=0.5;entryY=1;entryDx=0;entryDy=0;" edge="1" parent="1" source="NFTmUVM-WyqIyTPoP_TL-6" target="NFTmUVM-WyqIyTPoP_TL-7">
          <mxGeometry relative="1" as="geometry" />
        </mxCell>
        <mxCell id="NFTmUVM-WyqIyTPoP_TL-6" value="Cotas || Apostas" style="rounded=0;whiteSpace=wrap;html=1;" vertex="1" parent="1">
          <mxGeometry x="550" y="230" width="120" height="60" as="geometry" />
        </mxCell>
        <mxCell id="NFTmUVM-WyqIyTPoP_TL-7" value="Situação" style="ellipse;whiteSpace=wrap;html=1;" vertex="1" parent="1">
          <mxGeometry x="572.5" y="130" width="75" height="50" as="geometry" />
        </mxCell>
        <mxCell id="NFTmUVM-WyqIyTPoP_TL-10" value="Nome" style="ellipse;whiteSpace=wrap;html=1;" vertex="1" parent="1">
          <mxGeometry x="300" y="320" width="75" height="50" as="geometry" />
        </mxCell>
        <mxCell id="NFTmUVM-WyqIyTPoP_TL-11" value="Email" style="ellipse;whiteSpace=wrap;html=1;" vertex="1" parent="1">
          <mxGeometry x="414" y="320" width="75" height="50" as="geometry" />
        </mxCell>
        <mxCell id="NFTmUVM-WyqIyTPoP_TL-14" value="apostas" style="ellipse;whiteSpace=wrap;html=1;" vertex="1" parent="1">
          <mxGeometry x="190" y="140" width="75" height="50" as="geometry" />
        </mxCell>
      </root>
    </mxGraphModel>
  </diagram>
</mxfile>
